<svg xmlns="http://www.w3.org/2000/svg" viewBox="0 0 739.26 814.13"><defs><style>.cls-1{fill:none;stroke:#000;stroke-miterlimit:10;stroke-width:5px;}</style></defs><title>Blad1</title><g id="Layer_2" data-name="Layer 2"><path class="cls-1" d="M832.5,163.5c15.08-5.33,44.78,29,88,100,14.54-42.35,89-65.34,208-74,49.62,18.72,88.3,78.74,124,150,21.89,171.28-15.14,298.76-70,413-96.33-168.9-155.71-234.66-197-250-33.52,54.86,107.59,164.4,150,298-20.73,63.69-89.94,114.32-159,165-15.24,10.21-96.77-12.72-181-37-24.34-9.21,13.18-129.64,59-265-34,.77-92.54,112.7-130,221-20,22.45-44.27-18.41-68-52-12.74-113.74,112.83-230.2,205-346-51.76-19.17-124.51,36.78-242,253-27.66,14.11-55.6-16.57-84-118,117.3-158.83,191.83-207.37,254-224,7.59-45.89-55.53-24.42-254,126-14.69-68.56-14.3-148.52,0-239C687.84,201.64,812,141.27,832.5,163.5Z" transform="translate(-522.13 -156.35)"/></g><g id="Layer_3" data-name="Layer 3"><path class="cls-1" d="M1028.5,413.5c-16.85,15.4,75,89,91,89s16-15,16-15Q1082,406.83,1028.5,413.5Z" transform="translate(-522.13 -156.35)"/></g></svg>