<svg xmlns="http://www.w3.org/2000/svg" viewBox="0 0 3672 1031"><defs><style>.cls-1{fill:#ffaac6;}.cls-2{fill:#ff94dc;}.cls-3{fill:#ff3fe6;}.cls-4{fill:#ff8bc6;}.cls-5,.cls-6{stroke:#000;stroke-miterlimit:10;stroke-width:3px;}.cls-6{fill:none;}</style></defs><title>FLAMINGOsprite</title><g id="ben"><path class="cls-1" d="M2239,299c53.43,43,92.6,83,102,117,15.55,44.42,9.22,96.64-22,147-13.93,40.38-52,69.55-103,88-48.64,28-97.67,34.61-147,26-284.57-83.94-140.82-304,9-224,24.44,19.57,137.44-121.43,113-141,5.12-44.3-3.94-96.72-18-152-2.2-38,28.79-64.19,58-91,31-13.67,61.4-14.33,91,0l19,27c21.15-1.82,36.91,2,42,17,11.73,14.82,8.61,29.87,0,45,19.95,26.07,32.89,47.87,25,57-3.16,40.69-15.6,47.46-27,58-21.55,10.65-41.23,5.74-59-15,32.28-3.8,48.2-12.35,50-25,5.85-17.52-3.74-36.49-19-56-16.39,1.36-30.51-4.72-40-26l-1-41c7.53-15.72-20.36-22.8-60-27-30.13,25.85-49.23,51.54-52,77C2200,204.51,2213.88,251,2239,299Z"/><path class="cls-1" d="M2180,364.24l11.58-95.19s4.16,56.37,2.29,63.16"/><polygon class="cls-2" points="1905.06 545.33 1878.22 489.2 1889.91 498.87 1886.56 463.27 1905 493.86 1897.24 462.27 1916.15 472.46 1907.32 442.17 1931.58 471.01 1905.06 545.33"/><polygon class="cls-3" points="2158 665 2173.66 951.26 2158 1004 2177 966 2177 1004 2186 968 2202 1004 2180 945 2163 665 2158 665"/><polygon class="cls-3" points="2158.2 665.59 2347.87 880.57 2368.26 931.67 2359.63 890.07 2383.17 919.9 2367.93 886.07 2402.8 904.41 2348.97 871.73 2162.13 662.49 2158.2 665.59"/><path class="cls-4" d="M2231,413c-2.52,57.54-18.3,107.26-51,147-9.34-10.19-14.15-25.68-8-54-28.58,34.85-73.05,59.23-123,80,9.05-29.81,22.37-59,52-86-38.18,32.21-80.59,49.94-127,54,16.8-31.85,48.45-58,91-80-50.6,21.88-97.69,38.07-131,32,13.31-25.33,35.55-41.75,66-50-32.48-2.57-50.27-10.81-50-26,19.41-12.75,51.38-3.8,85,8-33.89-20.47-55.1-39.69-57-57,39.31,4.05,73.13,24.17,105,50-32.18-30.65-50-59.83-48-87,47.78,20.27,86.72,51.59,120,90-26.65-21.48-56.09-43-46-64,23.5-12.66,57.14,9.36,93,39-17.86-14.55-29-28.11-22-39,18.07,5.4,28.92,14.47,31,28"/><path class="cls-5" d="M2354,148c-1.82,6.61,1,21,6,21s6.62-9.58,7-16C2365.55,145,2360.42,141.11,2354,148Z"/><path class="cls-5" d="M2360,249c31.95,5.5,17.14-28.71,48-32-1.92,30.46-12.89,53.53-43,61-17.5,2-31.31-6.08-43-20C2322.38,259.62,2360.38,250.62,2360,249Z"/><path class="cls-6" d="M2347,177c-32.15-40.92,9.85-73.92,42-33"/><path class="cls-1" d="M977,297c53.43,43,92.6,83,102,117,15.55,44.42,9.22,96.64-22,147-13.93,40.38-52,69.55-103,88-48.64,28-97.67,34.61-147,26-284.57-83.94-140.82-304,9-224,24.44,19.57,137.44-121.43,113-141,5.12-44.3-3.94-96.72-18-152-2.2-38,28.79-64.19,58-91,31-13.67,61.4-14.33,91,0l19,27c21.15-1.82,36.91,2,42,17,11.73,14.82,8.61,29.87,0,45,20,26.07,32.89,47.87,25,57-3.16,40.69-15.6,47.46-27,58-21.55,10.65-41.23,5.74-59-15,32.28-3.8,48.2-12.35,50-25,5.85-17.52-3.74-36.49-19-56-16.39,1.36-30.51-4.72-40-26l-1-41c7.53-15.72-20.36-22.8-60-27-30.13,25.85-49.23,51.54-52,77C938,202.51,951.88,249,977,297Z"/><path class="cls-1" d="M918,362.24l11.58-95.19s4.16,56.37,2.29,63.16"/><polygon class="cls-2" points="643.06 543.33 616.22 487.2 627.91 496.87 624.56 461.27 643 491.86 635.24 460.27 654.15 470.46 645.32 440.17 669.58 469.01 643.06 543.33"/><polygon class="cls-3" points="896 663 911.66 949.26 896 1002 915 964 915 1002 924 966 940 1002 918 943 901 663 896 663"/><polygon class="cls-3" points="895.61 665.01 1026.08 920.29 1033.17 974.85 1035.12 932.4 1050.54 967.13 1044.16 930.58 1073.39 956.99 1029.34 911.99 900.18 662.98 895.61 665.01"/><path class="cls-4" d="M969,411c-2.52,57.54-18.3,107.26-51,147-9.34-10.19-14.15-25.68-8-54-28.58,34.85-73,59.23-123,80,9-29.81,22.37-59,52-86-38.18,32.21-80.59,49.94-127,54,16.8-31.85,48.45-58,91-80-50.6,21.88-97.69,38.07-131,32,13.31-25.33,35.55-41.75,66-50-32.48-2.57-50.27-10.81-50-26,19.41-12.75,51.38-3.8,85,8-33.89-20.47-55.1-39.69-57-57,39.31,4.05,73.13,24.17,105,50-32.18-30.65-50-59.83-48-87,47.78,20.27,86.72,51.59,120,90-26.65-21.48-56.09-43-46-64,23.5-12.66,57.14,9.36,93,39-17.86-14.55-29-28.11-22-39,18.07,5.4,28.92,14.47,31,28"/><path class="cls-5" d="M1092,146c-1.82,6.61,1,21,6,21s6.62-9.58,7-16C1103.55,143,1098.42,139.11,1092,146Z"/><path class="cls-5" d="M1098,247c32,5.5,17.14-28.71,48-32-1.92,30.46-12.89,53.53-43,61-17.5,2-31.31-6.08-43-20C1060.38,257.62,1098.38,248.62,1098,247Z"/><path class="cls-6" d="M1085,175c-32.15-40.92,9.85-73.92,42-33"/></g><g id="Layer_8" data-name="Layer 8"><path class="cls-1" d="M411,284c53.43,43,92.6,83,102,117,15.55,44.42,9.22,96.64-22,147-13.93,40.38-52,69.55-103,88-48.64,28-97.67,34.61-147,26-284.57-83.94-140.82-304,9-224,24.44,19.57,137.44-121.43,113-141,5.12-44.3-3.94-96.72-18-152-2.2-38,28.79-64.19,58-91,31-13.67,61.4-14.33,91,0l19,27c21.15-1.82,36.91,2,42,17,11.73,14.82,8.61,29.87,0,45,20,26.07,32.89,47.87,25,57-3.16,40.69-15.6,47.46-27,58-21.55,10.65-41.23,5.74-59-15,32.28-3.8,48.2-12.35,50-25,5.85-17.52-3.74-36.49-19-56-16.39,1.36-30.51-4.72-40-26l-1-41c7.53-15.72-20.36-22.8-60-27-30.13,25.85-49.23,51.54-52,77C372,189.51,385.88,236,411,284Z"/><path class="cls-1" d="M352,349.24l11.58-95.19s4.16,56.37,2.29,63.16"/><polygon class="cls-2" points="77.06 530.33 50.22 474.2 61.91 483.87 58.56 448.27 77 478.86 69.24 447.27 88.15 457.46 79.32 427.17 103.58 456.01 77.06 530.33"/><polygon class="cls-3" points="330 650 345.66 936.26 330 989 349 951 349 989 358 953 374 989 352 930 335 650 330 650"/><polygon class="cls-3" points="418 803 297 833 269 872 281 838 237 858 278 828 245 811 293 825 407 799 330.23 654.11 339 650 418 803"/><path class="cls-4" d="M403,398c-2.52,57.54-18.3,107.26-51,147-9.34-10.19-14.15-25.68-8-54-28.58,34.85-73.05,59.23-123,80,9.05-29.81,22.37-59,52-86-38.18,32.21-80.59,49.94-127,54,16.8-31.85,48.45-58,91-80-50.6,21.88-97.69,38.07-131,32,13.31-25.33,35.55-41.75,66-50-32.48-2.57-50.27-10.81-50-26,19.41-12.75,51.38-3.8,85,8-33.89-20.47-55.1-39.69-57-57,39.31,4.05,73.13,24.17,105,50-32.18-30.65-50-59.83-48-87,47.78,20.27,86.72,51.59,120,90-26.65-21.48-56.09-43-46-64,23.5-12.66,57.14,9.36,93,39-17.86-14.55-29-28.11-22-39,18.07,5.4,28.92,14.47,31,28"/><path class="cls-5" d="M526,133c-1.82,6.61,1,21,6,21s6.62-9.58,7-16C537.55,130,532.42,126.11,526,133Z"/><path class="cls-5" d="M532,234c32,5.5,17.14-28.71,48-32-1.92,30.46-12.89,53.53-43,61-17.5,2-31.31-6.08-43-20C494.38,244.62,532.38,235.62,532,234Z"/><path class="cls-6" d="M519,162c-32.15-40.92,9.85-73.92,42-33"/><path class="cls-1" d="M1584,283c53.43,43,92.6,83,102,117,15.55,44.42,9.22,96.64-22,147-13.93,40.38-52,69.55-103,88-48.64,28-97.67,34.61-147,26-284.57-83.94-140.82-304,9-224,24.44,19.57,137.44-121.43,113-141,5.12-44.3-3.94-96.72-18-152-2.2-38,28.79-64.19,58-91,31-13.67,61.4-14.33,91,0l19,27c21.15-1.82,36.91,2,42,17,11.73,14.82,8.61,29.87,0,45,20,26.07,32.89,47.87,25,57-3.16,40.69-15.6,47.46-27,58-21.55,10.65-41.23,5.74-59-15,32.28-3.8,48.2-12.35,50-25,5.85-17.52-3.74-36.49-19-56-16.39,1.36-30.51-4.72-40-26l-1-41c7.53-15.72-20.36-22.8-60-27-30.13,25.85-49.23,51.54-52,77C1545,188.51,1558.88,235,1584,283Z"/><path class="cls-1" d="M1525,348.24l11.58-95.19s4.16,56.37,2.29,63.16"/><polygon class="cls-2" points="1251.06 529.33 1224.22 473.2 1235.91 482.87 1232.56 447.27 1251 477.86 1243.24 446.27 1262.15 456.46 1253.32 426.17 1277.58 455.01 1251.06 529.33"/><polygon class="cls-3" points="1503 649 1518.66 935.26 1503 988 1522 950 1522 988 1531 952 1547 988 1525 929 1508 649 1503 649"/><polygon class="cls-3" points="1591 802 1470 832 1442 871 1454 837 1410 857 1451 827 1418 810 1466 824 1580 798 1503.22 653.11 1512 649 1591 802"/><path class="cls-4" d="M1584.6,440.27c-18.39,54.58-47.36,98-89.8,127.06-6.14-12.38-6.47-28.6,7.3-54.1-37.13,25.55-86.62,36.63-140.37,42.72,17-26.13,37.88-50.5,73.83-68.19-45.62,20.34-91.29,25.61-137,16.62,25-25.93,62.65-42.27,109.63-51.59-54.69,7-104.42,9.46-134.74-5.62,19.83-20.64,45.75-30.25,77.29-29.72-30.49-11.48-45.29-24.33-40.82-38.85,22.19-6.86,50.42,10.6,79.44,31.28-26.87-29.08-41.91-53.43-38.94-70.59,36.64,14.81,63.55,43.52,87,77.18-22.41-38.37-31.41-71.35-22-96.9,40.28,32.74,69,73.64,90.31,119.77-19.65-28-42-56.88-26.43-74.25,26.09-5.64,52.29,24.85,78.52,63.28-13.12-18.93-20.06-35.05-10.31-43.57,15.86,10.2,23.77,21.93,22,35.5"/><path class="cls-5" d="M1699,132c-1.82,6.61,1,21,6,21s6.62-9.58,7-16C1710.55,129,1705.42,125.11,1699,132Z"/><path class="cls-5" d="M1705,233c32,5.5,17.14-28.71,48-32-1.92,30.46-12.89,53.53-43,61-17.5,2-31.31-6.08-43-20C1667.38,243.62,1705.38,234.62,1705,233Z"/><path class="cls-6" d="M1692,161c-32.15-40.92,9.85-73.92,42-33"/><path class="cls-1" d="M2858,311c53.43,43,92.6,83,102,117,15.55,44.42,9.22,96.64-22,147-13.93,40.38-52,69.55-103,88-48.64,28-97.67,34.61-147,26-284.57-83.94-140.82-304,9-224,24.44,19.57,137.44-121.43,113-141,5.12-44.3-3.94-96.72-18-152-2.2-38,28.79-64.19,58-91,31-13.67,61.4-14.33,91,0l19,27c21.15-1.82,36.91,2,42,17,11.73,14.82,8.61,29.87,0,45,19.95,26.07,32.89,47.87,25,57-3.16,40.69-15.6,47.46-27,58-21.55,10.65-41.23,5.74-59-15,32.28-3.8,48.2-12.35,50-25,5.85-17.52-3.74-36.49-19-56-16.39,1.36-30.51-4.72-40-26l-1-41c7.53-15.72-20.36-22.8-60-27-30.13,25.85-49.23,51.54-52,77C2819,216.51,2832.88,263,2858,311Z"/><path class="cls-1" d="M2799,376.24l11.58-95.19s4.16,56.37,2.29,63.16"/><polygon class="cls-2" points="2524.06 557.33 2497.22 501.2 2508.91 510.87 2505.56 475.27 2524 505.86 2516.24 474.27 2535.15 484.46 2526.32 454.17 2550.58 483.01 2524.06 557.33"/><polygon class="cls-3" points="2777 677 2792.66 963.26 2777 1016 2796 978 2796 1016 2805 980 2821 1016 2799 957 2782 677 2777 677"/><polygon class="cls-3" points="2865 830 2744 860 2716 899 2728 865 2684 885 2725 855 2692 838 2740 852 2854 826 2777.22 681.11 2786 677 2865 830"/><path class="cls-4" d="M2858.71,470.52c-19.18,54.31-48.76,97.28-91.62,125.76-6-12.46-6.05-28.68,8.08-54-37.49,25-87.13,35.38-141,40.69,17.34-25.87,38.6-49.94,74.8-67.12-45.9,19.69-91.64,24.3-137.22,14.66,25.34-25.57,63.25-41.37,110.36-50-54.78,6.19-104.55,8-134.64-7.55,20.11-20.35,46.17-29.59,77.7-28.6-30.32-11.93-44.94-25-40.26-39.44,22.29-6.54,50.26,11.33,79,32.41-26.46-29.45-41.15-54-37.92-71.13,36.42,15.33,62.91,44.43,85.87,78.42-21.85-38.69-30.38-71.8-20.57-97.21,39.81,33.31,67.93,74.62,88.58,121.06-19.24-28.32-41.14-57.48-25.36-74.63,26.17-5.26,51.93,25.6,77.6,64.4-12.85-19.12-19.55-35.33-9.68-43.71,15.71,10.43,23.45,22.26,21.5,35.81"/><path class="cls-5" d="M2973,160c-1.82,6.61,1,21,6,21s6.62-9.58,7-16C2984.55,157,2979.42,153.11,2973,160Z"/><path class="cls-5" d="M2979,261c31.95,5.5,17.14-28.71,48-32-1.92,30.46-12.89,53.53-43,61-17.5,2-31.31-6.08-43-20C2941.38,271.62,2979.38,262.62,2979,261Z"/><path class="cls-6" d="M2966,189c-32.15-40.92,9.85-73.92,42-33"/><path class="cls-1" d="M3432,298c53.43,43,92.6,83,102,117,15.55,44.42,9.22,96.64-22,147-13.93,40.38-52,69.55-103,88-48.64,28-97.67,34.61-147,26-284.57-83.94-140.82-304,9-224,24.44,19.57,137.44-121.43,113-141,5.12-44.3-3.94-96.72-18-152-2.2-38,28.79-64.19,58-91,31-13.67,61.4-14.33,91,0l19,27c21.15-1.82,36.91,2,42,17,11.73,14.82,8.61,29.87,0,45,19.95,26.07,32.89,47.87,25,57-3.16,40.69-15.6,47.46-27,58-21.55,10.65-41.23,5.74-59-15,32.28-3.8,48.2-12.35,50-25,5.85-17.52-3.74-36.49-19-56-16.39,1.36-30.51-4.72-40-26l-1-41c7.53-15.72-20.36-22.8-60-27-30.13,25.85-49.23,51.54-52,77C3393,203.51,3406.88,250,3432,298Z"/><path class="cls-1" d="M3373,363.24l11.58-95.19s4.16,56.37,2.29,63.16"/><polygon class="cls-2" points="3098.06 544.33 3071.22 488.2 3082.91 497.87 3079.56 462.27 3098 492.86 3090.24 461.27 3109.15 471.46 3100.32 441.17 3124.58 470.01 3098.06 544.33"/><polygon class="cls-3" points="3351 664 3366.66 950.26 3351 1003 3370 965 3370 1003 3379 967 3395 1003 3373 944 3356 664 3351 664"/><polygon class="cls-3" points="3351.01 665.02 3391.22 948.87 3380.16 1002.76 3395.82 963.27 3399.09 1001.13 3404.96 964.49 3423.99 998.98 3397 942.09 3355.99 664.59 3351.01 665.02"/><path class="cls-4" d="M3424,412c-2.52,57.54-18.3,107.26-51,147-9.34-10.19-14.15-25.68-8-54-28.58,34.85-73.05,59.23-123,80,9.05-29.81,22.37-59,52-86-38.18,32.21-80.59,49.94-127,54,16.8-31.85,48.45-58,91-80-50.6,21.88-97.69,38.07-131,32,13.31-25.33,35.55-41.75,66-50-32.48-2.57-50.27-10.81-50-26,19.41-12.75,51.38-3.8,85,8-33.89-20.47-55.1-39.69-57-57,39.31,4.05,73.13,24.17,105,50-32.18-30.65-50-59.83-48-87,47.78,20.27,86.72,51.59,120,90-26.65-21.48-56.09-43-46-64,23.5-12.66,57.14,9.36,93,39-17.86-14.55-29-28.11-22-39,18.07,5.4,28.92,14.47,31,28"/><path class="cls-5" d="M3547,147c-1.82,6.61,1,21,6,21s6.62-9.58,7-16C3558.55,144,3553.42,140.11,3547,147Z"/><path class="cls-5" d="M3553,248c31.95,5.5,17.14-28.71,48-32-1.92,30.46-12.89,53.53-43,61-17.5,2-31.31-6.08-43-20C3515.38,258.62,3553.38,249.62,3553,248Z"/><path class="cls-6" d="M3540,176c-32.15-40.92,9.85-73.92,42-33"/></g></svg>