<svg xmlns="http://www.w3.org/2000/svg" viewBox="0 0 532.12 945.5"><defs><style>.cls-1,.cls-2{fill:#ffaac6;}.cls-2,.cls-6,.cls-7{stroke:#000;stroke-miterlimit:10;stroke-width:3px;}.cls-3{fill:#ff94dc;}.cls-4{fill:#ff3fe6;}.cls-5{fill:#ff8bc6;}.cls-7{fill:none;}</style></defs><title>FLAMINGO</title><g id="krop"><path class="cls-1" d="M775.5,308.5c53.43,43,92.6,83,102,117,15.55,44.42,9.22,96.64-22,147-13.93,40.38-52,69.55-103,88-48.64,28-97.67,34.61-147,26-284.57-83.94-140.82-304,9-224,24.44,19.57,137.44-121.43,113-141,5.12-44.3-3.94-96.72-18-152-2.2-38,28.79-64.19,58-91,31-13.67,61.4-14.33,91,0l19,27c21.15-1.82,36.91,2,42,17,11.73,14.82,8.61,29.87,0,45,20,26.07,32.89,47.87,25,57-3.16,40.69-15.6,47.46-27,58-21.55,10.65-41.23,5.74-59-15,32.28-3.8,48.2-12.35,50-25,5.85-17.52-3.74-36.49-19-56-16.39,1.36-30.51-4.72-40-26l-1-41c7.53-15.72-20.36-22.8-60-27-30.13,25.85-49.23,51.54-52,77C736.48,214,750.38,260.47,775.5,308.5Z" transform="translate(-414.72 -68)"/><path class="cls-2" d="M782.5,647.6" transform="translate(-414.72 -68)"/><path class="cls-1" d="M716.5,373.74l11.58-95.19s4.16,56.37,2.29,63.16" transform="translate(-414.72 -68)"/></g><g id="Hale"><polygon class="cls-3" points="26.83 486.83 0 430.7 11.69 440.38 8.33 404.78 26.78 435.36 19.01 403.77 37.93 413.96 29.09 383.67 53.35 412.51 26.83 486.83"/></g><g id="ben"><polygon class="cls-4" points="279.78 606.5 295.43 892.76 279.78 945.5 298.78 907.5 298.78 945.5 307.78 909.5 323.78 945.5 301.78 886.5 284.78 606.5 279.78 606.5"/><polygon class="cls-4" points="367.78 759.5 246.78 789.5 218.78 828.5 230.78 794.5 186.78 814.5 227.78 784.5 194.78 767.5 242.78 781.5 356.78 755.5 280 610.62 288.78 606.5 367.78 759.5"/></g><g id="Vinge"><path class="cls-5" d="M767.5,422.5c-2.52,57.54-18.3,107.26-51,147-9.34-10.19-14.15-25.68-8-54-28.58,34.85-73,59.23-123,80,9-29.81,22.37-59,52-86-38.18,32.21-80.59,49.94-127,54,16.8-31.85,48.45-58,91-80-50.6,21.88-97.69,38.07-131,32,13.31-25.33,35.55-41.75,66-50-32.48-2.57-50.27-10.81-50-26,19.41-12.75,51.38-3.8,85,8-33.89-20.47-55.1-39.69-57-57,39.31,4.05,73.13,24.17,105,50-32.18-30.65-50-59.83-48-87,47.78,20.27,86.72,51.59,120,90-26.65-21.48-56.09-43-46-64,23.5-12.66,57.14,9.36,93,39-17.86-14.55-29-28.11-22-39,18.07,5.4,28.92,14.47,31,28" transform="translate(-414.72 -68)"/></g><g id="Øje"><path class="cls-6" d="M890.5,157.5c-1.82,6.61,1,21,6,21s6.62-9.58,7-16C902.05,154.49,896.92,150.61,890.5,157.5Z" transform="translate(-414.72 -68)"/></g><g id="NÆB"><path class="cls-6" d="M896.5,258.5c32,5.5,17.14-28.71,48-32-1.92,30.46-12.89,53.53-43,61-17.5,2-31.31-6.08-43-20C858.88,269.12,896.88,260.12,896.5,258.5Z" transform="translate(-414.72 -68)"/></g><g id="Layer_8" data-name="Layer 8"><path class="cls-7" d="M883.5,186.5c-32.15-40.92,9.85-73.92,42-33" transform="translate(-414.72 -68)"/></g></svg>