<svg xmlns="http://www.w3.org/2000/svg" viewBox="0 0 299.97 973.15"><defs><style>.cls-1{fill:#bec8c5;}.cls-2,.cls-7,.cls-9{fill:none;}.cls-2,.cls-6,.cls-8,.cls-9{stroke:#000;}.cls-2,.cls-5,.cls-6,.cls-8,.cls-9{stroke-miterlimit:10;}.cls-3,.cls-5{fill:#aeb6b7;}.cls-4{fill:#bdbecb;}.cls-5{stroke:#999;}.cls-5,.cls-6,.cls-8{stroke-width:3px;}.cls-6{opacity:0.63;}.cls-8{fill:#fff;}.cls-9{stroke-width:4px;}</style></defs><title>flodhest</title><g id="Ben1"><path class="cls-1" d="M664.5,761.5l89,8c8.2,33.35-6.91,60.8-27,87-17.21,34.84-29.7,68.48-30,99,21.81,10.92,33.86,31.85,34,65-9.07,13.85-25.89,20.46-46,24-13.89-21.87-17.21-48.43-16-77l8-157C665,794.11,660.51,777.78,664.5,761.5Z" transform="translate(-638.35 -71.35)"/></g><g id="Layer_4" data-name="Layer 4"><path class="cls-1" d="M758.5,788.5l56-30c6.65,41-47.37,102.81-45,160,24.63,1.83,31.53,23.13,27,57-5.33,10.06-26.43,12.15-46,15-19.3-33-15.12-88.89-11-148C754.29,829.74,760.25,811.51,758.5,788.5Z" transform="translate(-638.35 -71.35)"/><path class="cls-2" d="M758.5,955.5c-6-.08-7.48,15.76-8,35l23.31-4.45c-.11-.45-.21-.91-.32-1.36C769.3,967.13,764.89,951.84,758.5,955.5Z" transform="translate(-638.35 -71.35)"/><path class="cls-2" d="M779.5,954.5c4.9-2.12,9.42,10.57,13.92,24-6.93,4.72-13.66,7.6-19.92,6C770.55,966.29,770.12,952.25,779.5,954.5Z" transform="translate(-638.35 -71.35)"/></g><g id="Hale"><path class="cls-3" d="M661.5,756.5c6.72-4.92,6.52-18.26,6-32-9.2,3.89-18.86,1.72-29-7C637.19,729.52,644.67,742.5,661.5,756.5Z" transform="translate(-638.35 -71.35)"/></g><g id="Ansigt"><path class="cls-2" d="M787.5,153.5c6.15-19.12,21.25-15.91,39-7,7-9.14,16-16.33,37-12,27.63,7,18.8,33.94,14,52-2.17,17.15,19.46,30.64,42,44,14.18,21.74,3.26,95.47-15,107-10.42-4.62-10.78,15.3-10,38-25.62,15.44-80.26,6.34-134-2C809.43,281.78,764.5,171.59,787.5,153.5Z" transform="translate(-638.35 -71.35)"/><path class="cls-1" d="M767.5,78.5c11,1,15.63-3.18,21.82,70.48q-21.26,0-21.82-15.48C772.63,112.52,772.76,94.12,767.5,78.5Z" transform="translate(-638.35 -71.35)"/><path class="cls-1" d="M853.5,128.5c20,5,16.29-33.63,20-56,9.64-6.53,10.56,15.52,8,49-3,11-9.64,7.94-9.43,16.4C859,136,833.5,123.5,853.5,128.5Z" transform="translate(-638.35 -71.35)"/></g><g id="Krop"><path class="cls-4" d="M667.5,761.5c-.85-58.24-2.79-152,53-180-19.44-87.18-29.56-172.23,45-238l132,34c42.93,30,20.72,96.44-82,388C772.87,776.93,729.24,786.46,667.5,761.5Z" transform="translate(-638.35 -71.35)"/></g><g id="Arm2"><path class="cls-3" d="M897.5,377.5c-9.42-16.23-2.62-30.32,15-43,37.83,27.82,24.12,143.58,20,243-1.4,27.92-21,33-21,33C867.27,637.06,877.83,479,897.5,377.5Z" transform="translate(-638.35 -71.35)"/></g><g id="Arm_venstre" data-name="Arm venstre"><path class="cls-5" d="M691.5,456.5c16.09-17.06,24.48-20.25,44-14,1.18-3,17.67,96.89,8.83,103-9.54.23-9.36,7.29.17,7,11.71-.29,4.1,9.06,39,15-.84-9.87,10.17-12.38,21-15,18.5,10.17,2.9,28.7-15,51-38.87-9.37-70.78-10.12-118-63C675.64,484.16,676.4,471.11,691.5,456.5Z" transform="translate(-638.35 -71.35)"/></g><g id="Næsebor"><path class="cls-6" d="M819.5,291.5h6c3.81-16.27,7.47-33,18-27,8.7,1,9.15,13.59,9,27h9c1-15,2.24-30-4-44-11.28-3.88-21.91-6.18-29,0-14,7.62-15.9,23.74-12,44" transform="translate(-638.35 -71.35)"/><path class="cls-6" d="M880.5,291.5h11c-2.19-13.55-.8-23.78,6-29,8.88,1.18,11.42,13.38,12,29h5c1.64-15.16.65-29.4-5-42-9.24-3.78-18.25-4-27,0C876.36,259.56,873.47,272,880.5,291.5Z" transform="translate(-638.35 -71.35)"/></g><g id="Layer_12" data-name="Layer 12"><path class="cls-3" d="M883,203c-8-9.33-6.65-25.3,0-45,2-9.41-7-17.4-19-25-19.54-1.49-33.12,3.23-39,16-5.91-9.54-14.92-10.67-32-7-6.71,5.79-14.41,19.49-21.92,36.73,4,34.83,3.36,125.63-4.08,180.27,10.57,14.27,24,25.36,53,19l-5-34c-2-7.42-11.52-42.43-19-70l34,61h79c11.82-19.28,18.2-48.33,17-91C929.66,236.25,910.53,221,883,203Z" transform="translate(-638.35 -71.35)"/><path class="cls-3" d="M749.41,283.94c.24,1.42.48,2.84.7,4.26q.46-5.93.91-11.51C750.59,279.12,750.06,281.54,749.41,283.94Z" transform="translate(-638.35 -71.35)"/><path class="cls-7" d="M793,185c0,55.27,26.84,100,60,100" transform="translate(-638.35 -71.35)"/><path class="cls-2" d="M795,173h25c9.15,6-5.85,29-15,23C792.68,201.35,782.68,178.35,795,173Z" transform="translate(-638.35 -71.35)"/><path class="cls-2" d="M849,161h25c9.15,6-5.85,29-15,23C846.68,189.35,836.68,166.35,849,161Z" transform="translate(-638.35 -71.35)"/><path d="M849.17,241.25c-5.94,2.22-7.25,10.3-1.45,13.61,2.41,1.38,6.6,1.67,7.82-1.4,1.07-2.68,1.07-6.91-.86-9.19-1.74-2.06-4.95-2.83-7-.73s-2.33,5.6-.4,7.67c1.67,1.78,5.1,1.95,6.36-.43a3.47,3.47,0,0,0-3-5c-1.93-.07-1.93,2.93,0,3q.91.39-.93.63a2,2,0,0,1-.68-2.12c.23-1.44,1.23-2.38,2.66-1.65,2,1,2.21,6.67-.25,7.24-2,.46-4.2-1.85-4.55-3.58a4.69,4.69,0,0,1,3-5.13c1.79-.67,1-3.58-.8-2.9Z" transform="translate(-638.35 -71.35)"/><path d="M898.88,237.42c-2.11,3-4.28,6.6-3.1,10.43a5.89,5.89,0,0,0,5.92,4.44c6-.5,7.38-9.45,4.29-13.46-1.67-2.17-4.74-3.09-6.78-.81-1.8,2-1.81,5.9-.84,8.27.89,2.19,3.47,3.66,5.47,1.76,2.62-2.48.36-5.77-1.76-7.56-1.47-1.23-3.6.88-2.12,2.12.45.38,1.76,1.33,1.85,1.92.15.87-.35,1.37-.76.36a6.38,6.38,0,0,1,.05-4.14c1.28-2.3,2.87.06,3.32,1.47a6.61,6.61,0,0,1-.07,3.84c-.71,2.39-3.48,4.87-5.32,1.79s.76-6.5,2.44-8.92c1.1-1.59-1.49-3.09-2.59-1.51Z" transform="translate(-638.35 -71.35)"/><path d="M804,194.18c-1-3-.88-6.66,1.48-9s6.9-1.7,8.06,1.54c.65,1.8-.47,3.41-1.85,4.48-.72.56-3.39,2.46-4.31,2s-.7-3-.63-4c.13-1.71.53-3.56,2.39-4.06l-1.9-1.45a8.33,8.33,0,0,0,2.9,6.71l.66-2.51a9.19,9.19,0,0,0-6.28,4.87,1.51,1.51,0,0,0,2.05,2,12.44,12.44,0,0,0,6.59-9.87c.2-1.66-2.69-2.07-2.94-.39a7.7,7.7,0,0,0,0,2.87c.28,1.3,1,1.92,1.55,3,1.38,3.1-5,4.43-7.16,4.42a1.5,1.5,0,0,0,0,3,12.7,12.7,0,0,0,9.24-3.61,3.9,3.9,0,0,0,1.42-3.42c-.36-2.11-2.5-3.08-2.13-5.52l-3-.4a9.36,9.36,0,0,1-5.1,7.28l2,2.05a6.35,6.35,0,0,1,4.49-3.49,1.5,1.5,0,0,0,.66-2.5,5.54,5.54,0,0,1-2-4.59,1.52,1.52,0,0,0-1.9-1.45c-2.67.73-4,2.91-4.43,5.55-.35,2.11-.54,5.64.85,7.47,1.71,2.25,4.83.6,6.79-.44,2.43-1.29,4.68-3.33,5.12-6.16.81-5.2-5.19-8.94-9.84-7.7-5.88,1.58-7.41,8.9-5.72,14,.6,1.82,3.5,1,2.89-.8Z" transform="translate(-638.35 -71.35)"/><path d="M859.2,183.59c-.2-3.18-.61-7.32,1.61-10,1.49-1.77,5.52-2.87,6.59-.08,1,2.48-.17,8.26-3.53,8.21-4.7-.08.75-6.38,1.76-7.84l-2.35.31a2.82,2.82,0,0,1-.74,4.53c-1.71.89-.2,3.48,1.52,2.6a5.84,5.84,0,0,0,1.34-9.25,1.53,1.53,0,0,0-2.36.3c-1.6,2.31-4.48,5.22-4.19,8.28a4.59,4.59,0,0,0,3.64,3.89c5.51,1.35,8.18-4.73,8.14-9.25,0-5.13-4.51-7.75-9.16-5.77-5.48,2.33-5.59,9-5.27,14,.11,1.92,3.12,1.94,3,0Z" transform="translate(-638.35 -71.35)"/><path d="M860.78,182.2c4.81-.42,7.44-7.2,3.52-10.44a1.51,1.51,0,0,0-2.51,1.45c.15.71.09,1.87-.69,2.06,0,0-.64-.82-.48,0a2.32,2.32,0,0,1,.7.76,3.44,3.44,0,0,1,.39.85c.67,1.54,1.39,3.29,3.2,3.73,3.39.84,5.09-4.32,2.06-5.83-1.72-.85-3.25,1.73-1.51,2.59.18.1,0,.3.14.35a3.93,3.93,0,0,1-.82-1.21,9.36,9.36,0,0,0-1.83-3.2c-1.68-1.59-5-1.3-5.1,1.47a3.44,3.44,0,0,0,4.09,3.42c2.51-.66,3.21-3.56,2.74-5.79l-2.51,1.46c1.72,1.41,1.07,5.1-1.39,5.32-1.91.16-1.92,3.16,0,3Z" transform="translate(-638.35 -71.35)"/></g><g id="Tænder"><path class="cls-8" d="M802.5,291.5c10.81,19,22.84,39.14,23,48h20.61c10.87-3.73,31.07-1.9,51.39,0-7.56,24.23-6.12,40.45-7,38-10.1-.46-19.35-1.63-26-5-2-8.6-1.71-18,0-28a32.13,32.13,0,0,1-18,0c2.27,7.57,1.6,15.26,0,23-5.88,2.73-15.74,1.56-26,0a65.76,65.76,0,0,1,1-24C815.34,334.64,808.91,312.33,802.5,291.5Z" transform="translate(-638.35 -71.35)"/></g><g id="Øjenbryn"><path class="cls-9" d="M844,159c9-10.51,36.29-17.57,37,8" transform="translate(-638.35 -71.35)"/><path class="cls-9" d="M788.47,165.47c6.89-12,32.35-24.09,37.85.89" transform="translate(-638.35 -71.35)"/></g></svg>