<svg xmlns="http://www.w3.org/2000/svg" viewBox="0 0 380 250"><defs><style>.cls-1{fill:#aaffba;}.cls-2{font-size:24px;fill:#00552d;font-family:MyriadPro-Regular, Myriad Pro;}.cls-3{letter-spacing:-0.01em;}.cls-4{letter-spacing:0.02em;}.cls-5{letter-spacing:-0.04em;}.cls-6{letter-spacing:-0.06em;}</style></defs><title>GRØNTALEBOBEL</title><g id="Blå"><path class="cls-1" d="M232.08,238.08l-72-58c-31.36,32-60.74,44.6-86,17-38.17-24.55-50.17-50.07-24-77-29.93-38.31-7-54.71,21-69,36.93-46.47,92.78-36.28,152-16,98.07-13.35,115.65,9.79,111,43,42.23,46.15,40.88,68.78,11,76-7.78,34.45-39.39,48.16-126,14Z"/><text class="cls-2" transform="translate(77.62 91.86)">SKRID <tspan class="cls-3" x="64.56" y="0">M</tspan><tspan x="83.62" y="0">AKKER D</tspan><tspan class="cls-4" x="170.11" y="0">E</tspan><tspan x="182.3" y="0">T ER </tspan><tspan x="0" y="28.8">MIT</tspan><tspan class="cls-5" x="36.96" y="28.8"> </tspan><tspan class="cls-6" x="41.18" y="28.8">V</tspan><tspan x="53.21" y="28.8">ANDHUL!!! </tspan></text></g></svg>