<svg xmlns="http://www.w3.org/2000/svg" viewBox="0 0 1400 500"><defs><style>.cls-1{fill:#bec8c5;}.cls-2,.cls-4{fill:#aeb6b7;}.cls-3,.cls-7,.cls-9{fill:none;}.cls-3,.cls-6,.cls-8,.cls-9{stroke:#000;}.cls-3,.cls-4,.cls-6,.cls-8,.cls-9{stroke-miterlimit:10;}.cls-4{stroke:#999;}.cls-4,.cls-6,.cls-8{stroke-width:3px;}.cls-5{fill:#bdbecb;}.cls-6{opacity:0.63;}.cls-8{fill:#fff;}.cls-9{stroke-width:4px;}</style></defs><title>Hippopritw</title><g id="Ben1"><path class="cls-1" d="M933,342.28,871.73,327.8c-10.21,13.76-3.85,29.55,6.06,45.78,6.74,19.64,10.47,37.76,6.4,51.94-16.26.6-27.33,7.82-32.06,23.14,4.18,8.26,14.62,14.75,27.71,20.5,12.44-7.28,18.4-18.9,21.58-32.36L918,362.5C928.05,357.27,933.37,350.63,933,342.28Z"/><path class="cls-1" d="M596.45,353.78,535.23,339.3c-10.21,13.76-3.85,29.55,6.06,45.78,6.74,19.64,10.47,37.76,6.4,51.94-16.26.6-27.33,7.82-32.06,23.14,4.18,8.26,14.62,14.75,27.71,20.5,12.44-7.28,18.4-18.9,21.58-32.36L581.49,374C591.55,368.77,596.87,362.13,596.45,353.78Z"/><path class="cls-1" d="M527.68,368.73l-39.51-14.51c-4.69,19.82,33.42,49.71,31.75,77.36-17.38.88-22.25,11.19-19,27.56,3.77,4.86,18.65,5.87,32.46,7.25,13.62-16,10.66-43,7.76-71.55C530.65,388.67,526.45,379.85,527.68,368.73Z"/><path class="cls-2" d="M596.12,353.26c-4.74-2.38-4.6-8.83-4.23-15.47,6.49,1.87,13.3.83,20.46-3.39C613.28,340.21,608,346.49,596.12,353.26Z"/><path class="cls-3" d="M507.22,61.72c-4.34-9.25-15-7.69-27.52-3.39-4.93-4.42-11.29-7.89-26.1-5.8-19.5,3.37-13.27,16.41-9.88,25.14C445.25,86,430,92.49,414.09,98.94c-10,10.52-2.31,46.16,10.58,51.74,7.35-2.24,7.61,7.39,7.06,18.37,18.07,7.46,56.63,3.06,94.54-1C491.75,123.74,523.45,70.46,507.22,61.72Z"/><path class="cls-1" d="M521.33,25.46c-7.76.48-11-1.54-15.39,34.07q15,0,15.39-7.48C517.71,41.9,517.62,33,521.33,25.46Z"/><path class="cls-1" d="M460.65,49.63c-14.11,2.42-11.49-16.26-14.11-27.08-6.8-3.15-7.45,7.51-5.64,23.69,2.12,5.32,6.8,3.84,6.65,7.93C456.75,53.24,474.77,47.21,460.65,49.63Z"/><path class="cls-4" d="M459,208.21c-11.36-8.25-17.28-9.79-31-6.77-.83-1.45-12.46,46.85-6.23,49.78,6.73.11,6.61,3.52-.12,3.41-8.26-.14-2.89,4.38-27.52,7.25.59-4.77-7.17-6-14.81-7.25-13.05,4.91-2.05,13.87,10.58,24.65,27.42-4.53,49.94-4.89,83.26-30.46C470.15,221.59,469.61,215.27,459,208.21Z"/><path class="cls-5" d="M591.89,355.67c.6-28.15,2-73.49-37.4-87,13.72-42.15,20.86-83.27-31.75-115.07L429.61,170c-30.29,14.49-14.62,46.62,57.86,187.59C517.54,363.13,548.33,367.74,591.89,355.67Z"/><path class="cls-4" d="M564.13,199.09c-13.28-4.55-19.39-4.28-31.67,2.66-1.22-1.15,1.87,48.44,8.69,49.4,6.47-1.87,7.35,1.43.89,3.3-7.94,2.3-1.48,5-24.17,15-.84-4.73-8.62-3.6-16.29-2.57-11,8.54,2.13,13.87,17.37,20.46,24.88-12.4,46.29-19.37,70.61-53.61C578.76,208.58,576.39,202.7,564.13,199.09Z"/><path class="cls-6" d="M484.64,128.44h-4.23c-2.69-7.87-5.27-16-12.7-13.06-6.14.5-6.46,6.57-6.35,13.06H455c-.74-7.25-1.58-14.51,2.82-21.28,8-1.87,15.46-3,20.46,0,9.85,3.69,11.22,11.48,8.47,21.28"/><path class="cls-6" d="M441.6,128.44h-7.76c1.55-6.55.56-11.5-4.23-14-6.27.57-8.06,6.47-8.47,14h-3.52c-1.16-7.33-.46-14.22,3.52-20.31a32.87,32.87,0,0,1,19.05,0C444.52,113,446.57,119,441.6,128.44Z"/><path class="cls-2" d="M439.84,85.65c5.66-4.51,4.69-12.23,0-21.76-1.39-4.55,4.93-8.41,13.41-12.08,13.78-.73,23.37,1.56,27.51,7.73,4.17-4.61,10.53-5.16,22.58-3.38,4.74,2.79,10.17,9.42,15.47,17.75-2.86,16.84-2.38,60.74,2.88,87.16-7.47,6.9-16.93,12.26-37.4,9.19l3.53-16.44L501.22,120l-24,29.49H421.5c-8.34-9.32-12.85-23.37-12-44C406.92,101.72,420.42,94.35,439.84,85.65Z"/><path class="cls-2" d="M534.1,124.78c-.17.69-.34,1.37-.5,2.06-.21-1.91-.43-3.76-.64-5.56A31,31,0,0,0,534.1,124.78Z"/><path class="cls-7" d="M503.34,77c0,26.72-18.93,48.34-42.33,48.34"/><path class="cls-3" d="M501.93,71.14H484.29c-6.46,2.89,4.13,14,10.58,11.12C503.56,84.85,510.62,73.73,501.93,71.14Z"/><path class="cls-3" d="M463.83,65.34H446.19c-6.46,2.89,4.13,14,10.58,11.12C465.46,79.05,472.52,67.93,463.83,65.34Z"/><path d="M463,106.29c.67.17,2.24.74,1.73,1.68s-2.47,1.29-3.28,1l-.09,0c.18.07.18-.05,0-.34a6,6,0,0,1,0-.85,1.13,1.13,0,0,1,1.11-.85c.18,0,1,.06.9.42,0,.11-.54.09-.6.12l-.2,0a1.09,1.09,0,0,1,.08,1.18c1.93,0,1.93-3,0-3a2.64,2.64,0,0,0-2.79,2.45c0,1.62,1.64,2.43,3.07,2.39a3.41,3.41,0,0,0,3.35-2.36,3.46,3.46,0,0,0-2-3.84,4.55,4.55,0,0,0-4.28.5,4.09,4.09,0,0,0-1.52,4.3,3.16,3.16,0,0,0,3.18,3,6.9,6.9,0,0,0,4.57-1.27,3.68,3.68,0,0,0,1.48-4.19,5.26,5.26,0,0,0-3.85-3.1c-1.88-.47-2.68,2.42-.8,2.89Z"/><path d="M426.66,103.72c.68.66,2.54,2.12,1.52,3.14a2,2,0,0,1-2.95-.6,1.48,1.48,0,0,1-.18-1.19c.16-.44,1-1.21,1.53-.88.34.21.25.71.24,1.07s-.29.3-.05.69.69-.12,1.11-.37a1.5,1.5,0,0,0-1.51-2.59c-1.32.76-2.84,1.9-2.43,3.63a2.87,2.87,0,0,0,3.66,1.87c2.85-.89,3-5.56.47-6.91-3-1.61-6.47,1.37-6,4.5A5,5,0,0,0,428.7,110a4.15,4.15,0,0,0,2.8-3.52c.12-2-1.41-3.56-2.72-4.85s-3.5.77-2.12,2.13Z"/><path d="M497.88,82.34a5.65,5.65,0,0,0-4.24-8.08c-2.76-.54-8,.75-7.46,4.46.23,1.7,1.76,2.77,3.22,3.42s4.34,1.89,5.85.41c1-1,1.12-3.06.82-4.38a4.19,4.19,0,0,0-3.45-3.28,1.52,1.52,0,0,0-1.9,1.44c0,.73-.4,1.07-1,1.44-1,.61-1,2.53.35,2.74A4.28,4.28,0,0,1,493,81.84l1.69-2.2a4.27,4.27,0,0,1-3.07-3.1l-2.9.8c.12.6-1.4,1.59-1.52,2.41A2.34,2.34,0,0,0,488.26,82a11,11,0,0,0,6.89,2,1.5,1.5,0,0,0,0-3c-1.36,0-4.42-.15-5.22-1.58l.16,1.16c.07-.53,1.15-1.25,1.39-1.85a3.62,3.62,0,0,0,.13-2.16c-.36-1.9-3.22-1.09-2.9.8.47,2.67,2.78,4.31,5.18,5.19,1.16.43,2.47-1.17,1.69-2.21a7,7,0,0,0-4.7-2.7l.36,2.74a4.54,4.54,0,0,0,2.48-4l-1.9,1.45c.78.15,1.2.37,1.36,1.19a3.39,3.39,0,0,1,0,.9,3.29,3.29,0,0,1-.1.53l0-.2c-.71.22-4-1.21-3.87-2,.15-1.08,3.17-1.14,3.87-1,1.71.32,3.07,1.89,2.25,3.62s1.76,3.26,2.59,1.52Z"/><path d="M459.19,76.27c.31-3.39-.67-6.6-4.26-7.6-2.9-.81-6.87.07-6.79,3.73a5.2,5.2,0,0,0,6.45,5.06,3.17,3.17,0,0,0,2.73-2.6c.17-2-2.05-3.5-3.25-4.7a1.53,1.53,0,0,0-1.82-.23c-2.66,1.85-1.73,5,1.09,6.07,1.81.67,2.6-2.22.8-2.89-.29-.1-.76-.32-.38-.59L452,72.29c.4.39,2.05,1.6,2.13,2.11l.22,0a2.17,2.17,0,0,1-.5.13,2.8,2.8,0,0,1-1,0c-1.15-.24-2.52-2.29-1.13-3a4.09,4.09,0,0,1,3.51.47c1.36,1,1.14,2.81,1,4.26-.17,1.92,2.83,1.91,3,0Z"/><path d="M455.52,73.37a1.49,1.49,0,0,1-1.21-.65c0,.06-.06-.24-.06-.09,0-.27.08-.12,0,0a2.49,2.49,0,0,1,.31-.23l-2.2-1.69a3,3,0,0,0,2,3.69c1.54.45,3.67-.46,3.7-2.27,0-2-2.53-2.44-3.94-1.63a4.43,4.43,0,0,0-1.6,1.7,3.63,3.63,0,0,0-.33.47s-.11,0-.11,0a.35.35,0,0,1,.34.24c.36.34.26.74-.32,1.19,1.82-.63,1-3.52-.79-2.89a2.23,2.23,0,0,0-1.66,2.54,2.38,2.38,0,0,0,2,1.87,3.12,3.12,0,0,0,2.81-1,12.36,12.36,0,0,0,.79-1.15c0-.07.2-.21.22-.28l.13-.1q.38-.09-.36-.33l-.21-.76c0-.14.23-.45.23-.46s-.14,0-.13,0c.09-.19-.05.53.11,0a1.51,1.51,0,0,0-2.2-1.69,3.21,3.21,0,0,0-1.54,4,4.41,4.41,0,0,0,4,2.65c1.93.11,1.92-2.89,0-3Z"/><path class="cls-8" d="M496.64,128.44c-7.63,9.18-16.12,18.92-16.23,23.2H465.87c-7.67-1.8-21.92-.91-36.26,0,5.33,11.72,4.32,19.56,4.94,18.38,7.12-.23,13.65-.79,18.34-2.42,1.4-4.16,1.21-8.72,0-13.54a32.69,32.69,0,0,0,12.7,0c-1.6,3.66-1.13,7.38,0,11.12,4.15,1.32,11.11.76,18.35,0a22,22,0,0,0-.71-11.6C487.58,149.29,492.12,138.51,496.64,128.44Z"/><path class="cls-9" d="M467.36,64.38c-6.37-5.09-25.61-8.5-26.11,3.86"/><path class="cls-9" d="M506.53,67.5c-4.85-5.81-22.81-11.64-26.7.44"/></g><g id="Layer_4" data-name="Layer 4"><path class="cls-1" d="M856.63,366.11l-28.74-30.75c-13.12,15.57,7.44,59.43-6.51,83.36-15.91-7-24.9,0-29.42,16,1.16,6,14,13.64,25.7,21.1,19.36-8.13,28.89-33.56,39.17-60.39C850.3,385.24,850.51,375.48,856.63,366.11Z"/><path class="cls-1" d="M243,348.67l-62.8,3.87c-5.78,16.12,4.87,29.4,19,42.07,12.14,16.84,21,33.1,21.17,47.86-15.39,5.28-23.9,15.4-24,31.43,6.4,6.69,18.26,9.89,32.45,11.6,9.8-10.57,12.15-23.41,11.29-37.23l-5.64-75.91C242.65,364.44,245.82,356.54,243,348.67Z"/><path class="cls-1" d="M176.68,361.73l-39.51-14.51c-4.69,19.82,33.42,49.71,31.75,77.36-17.38.88-22.25,11.19-19,27.56,3.77,4.86,18.65,5.87,32.46,7.25,13.62-16,10.66-43,7.76-71.55C179.65,381.67,175.45,372.85,176.68,361.73Z"/><path class="cls-2" d="M245.12,346.26c-4.74-2.38-4.6-8.83-4.23-15.47,6.49,1.87,13.3.83,20.46-3.39C262.28,333.21,257,339.49,245.12,346.26Z"/><path class="cls-3" d="M156.22,54.72c-4.34-9.25-15-7.69-27.52-3.39-4.93-4.42-11.29-7.89-26.1-5.8C83.1,48.9,89.33,61.94,92.72,70.67,94.25,79,79,85.49,63.09,91.94c-10,10.52-2.31,46.16,10.58,51.74,7.35-2.24,7.61,7.39,7.06,18.37,18.07,7.46,56.63,3.06,94.54-1C140.75,116.74,172.45,63.46,156.22,54.72Z"/><path class="cls-1" d="M170.33,18.46c-7.76.48-11-1.54-15.39,34.07q15,0,15.39-7.48C166.71,34.9,166.62,26,170.33,18.46Z"/><path class="cls-1" d="M109.65,42.63C95.54,45.05,98.16,26.37,95.54,15.55c-6.8-3.15-7.45,7.51-5.64,23.69,2.12,5.32,6.8,3.84,6.65,7.93C105.75,46.24,123.77,40.21,109.65,42.63Z"/><path class="cls-4" d="M108,201.21c-11.36-8.25-17.28-9.79-31-6.77-.83-1.45-12.46,46.85-6.23,49.78,6.73.11,6.61,3.52-.12,3.41-8.26-.14-2.89,4.38-27.52,7.25.59-4.77-7.17-6-14.81-7.25-13,4.91-2.05,13.87,10.58,24.65,27.42-4.53,49.94-4.89,83.26-30.46C119.15,214.59,118.61,208.27,108,201.21Z"/><path class="cls-5" d="M240.89,348.67c.6-28.15,2-73.49-37.4-87,13.72-42.15,20.86-83.27-31.75-115.07L78.61,163C48.32,177.51,64,209.64,136.47,350.61,166.54,356.13,197.33,360.74,240.89,348.67Z"/><path class="cls-4" d="M224,201.21c-11.36-8.25-17.28-9.79-31.05-6.77-.83-1.45-12.46,46.85-6.23,49.78,6.73.11,6.61,3.52-.12,3.41-8.26-.14-2.89,4.38-27.52,7.25.59-4.77-7.17-6-14.81-7.25-13,4.91-2,13.87,10.58,24.65,27.42-4.53,49.94-4.89,83.26-30.46C235.15,214.59,234.61,208.27,224,201.21Z"/><path class="cls-6" d="M133.64,121.44h-4.23c-2.69-7.87-5.27-16-12.7-13.06-6.14.5-6.46,6.57-6.35,13.06H104c-.74-7.25-1.58-14.51,2.82-21.28,8-1.87,15.46-3,20.46,0,9.85,3.69,11.22,11.48,8.47,21.28"/><path class="cls-6" d="M90.6,121.44H82.84c1.55-6.55.56-11.5-4.23-14-6.27.57-8.06,6.47-8.47,14H66.62c-1.16-7.33-.46-14.22,3.52-20.31a32.87,32.87,0,0,1,19,0C93.52,106,95.57,112,90.6,121.44Z"/><path class="cls-2" d="M88.84,78.65c5.66-4.51,4.69-12.23,0-21.76-1.39-4.55,4.93-8.41,13.41-12.08,13.78-.73,23.37,1.56,27.51,7.73,4.17-4.61,10.53-5.16,22.58-3.38,4.74,2.79,10.17,9.42,15.47,17.75-2.86,16.84-2.38,60.74,2.88,87.16-7.47,6.9-16.93,12.26-37.4,9.19l3.53-16.44L150.22,113l-24,29.49H70.5c-8.34-9.32-12.85-23.37-12-44C55.92,94.72,69.42,87.35,88.84,78.65Z"/><path class="cls-2" d="M183.1,117.78c-.17.69-.34,1.37-.5,2.06-.21-1.91-.43-3.76-.64-5.56A31,31,0,0,0,183.1,117.78Z"/><path class="cls-7" d="M152.34,70c0,26.72-18.93,48.34-42.33,48.34"/><path class="cls-3" d="M150.93,64.14H133.29c-6.46,2.89,4.13,14,10.58,11.12C152.56,77.85,159.62,66.73,150.93,64.14Z"/><path class="cls-3" d="M112.83,58.34H95.19c-6.46,2.89,4.13,14,10.58,11.12C114.46,72.05,121.52,60.93,112.83,58.34Z"/><path d="M112,99.29c.67.17,2.24.74,1.73,1.68s-2.47,1.29-3.28,1l-.09,0c.18.07.18-.05,0-.34a6,6,0,0,1-.05-.85,1.13,1.13,0,0,1,1.11-.85c.18,0,1,.06.9.42,0,.11-.54.09-.6.12l-.2,0a1.09,1.09,0,0,1,.08,1.18c1.93,0,1.93-3,0-3a2.64,2.64,0,0,0-2.79,2.45c0,1.62,1.64,2.43,3.07,2.39a3.41,3.41,0,0,0,3.35-2.36,3.46,3.46,0,0,0-2-3.84,4.55,4.55,0,0,0-4.28.5,4.09,4.09,0,0,0-1.52,4.3,3.16,3.16,0,0,0,3.18,3,6.9,6.9,0,0,0,4.57-1.27,3.68,3.68,0,0,0,1.48-4.19,5.26,5.26,0,0,0-3.85-3.1c-1.88-.47-2.68,2.42-.8,2.89Z"/><path d="M75.66,96.72c.68.66,2.54,2.12,1.52,3.14a2,2,0,0,1-3-.6,1.48,1.48,0,0,1-.18-1.19c.16-.44,1-1.21,1.53-.88.34.21.25.71.24,1.07s-.29.3,0,.69.69-.12,1.11-.37A1.5,1.5,0,0,0,75.37,96c-1.32.76-2.84,1.9-2.43,3.63a2.87,2.87,0,0,0,3.66,1.87c2.85-.89,3-5.56.47-6.91-3-1.61-6.47,1.37-6,4.5A5,5,0,0,0,77.7,103a4.15,4.15,0,0,0,2.8-3.52c.12-2-1.41-3.56-2.72-4.85s-3.5.77-2.12,2.13Z"/><path d="M146.88,75.34a5.65,5.65,0,0,0-4.24-8.08c-2.76-.54-8,.75-7.46,4.46.23,1.7,1.76,2.77,3.22,3.42s4.34,1.89,5.85.41c1-1,1.12-3.06.82-4.38a4.19,4.19,0,0,0-3.45-3.28,1.52,1.52,0,0,0-1.9,1.44c0,.73-.4,1.07-1,1.44-1,.61-1,2.53.35,2.74A4.28,4.28,0,0,1,142,74.84l1.69-2.2a4.27,4.27,0,0,1-3.07-3.1l-2.9.8c.12.6-1.4,1.59-1.52,2.41A2.34,2.34,0,0,0,137.26,75a11,11,0,0,0,6.89,2,1.5,1.5,0,0,0,0-3c-1.36,0-4.42-.15-5.22-1.58l.16,1.16c.07-.53,1.15-1.25,1.39-1.85a3.62,3.62,0,0,0,.13-2.16c-.36-1.9-3.22-1.09-2.9.8.47,2.67,2.78,4.31,5.18,5.19,1.16.43,2.47-1.17,1.69-2.21a7,7,0,0,0-4.7-2.7l.36,2.74a4.54,4.54,0,0,0,2.48-4l-1.9,1.45c.78.15,1.2.37,1.36,1.19a3.39,3.39,0,0,1,0,.9,3.29,3.29,0,0,1-.1.53l0-.2c-.71.22-4-1.21-3.87-2,.15-1.08,3.17-1.14,3.87-1,1.71.32,3.07,1.89,2.25,3.62s1.76,3.26,2.59,1.52Z"/><path d="M108.19,69.27c.31-3.39-.67-6.6-4.26-7.6-2.9-.81-6.87.07-6.79,3.73a5.2,5.2,0,0,0,6.45,5.06,3.17,3.17,0,0,0,2.73-2.6c.17-2-2-3.5-3.25-4.7a1.53,1.53,0,0,0-1.82-.23c-2.66,1.85-1.73,5,1.09,6.07,1.81.67,2.6-2.22.8-2.89-.29-.1-.76-.32-.38-.59L101,65.29c.4.39,2,1.6,2.13,2.11l.22,0a2.17,2.17,0,0,1-.5.13,2.8,2.8,0,0,1-1,0c-1.15-.24-2.52-2.29-1.13-3a4.09,4.09,0,0,1,3.51.47c1.36,1,1.14,2.81,1,4.26-.17,1.92,2.83,1.91,3,0Z"/><path d="M104.52,66.37a1.49,1.49,0,0,1-1.21-.65c0,.06-.06-.24-.06-.09,0-.27.08-.12,0,0a2.49,2.49,0,0,1,.31-.23l-2.2-1.69a3,3,0,0,0,2,3.69c1.54.45,3.67-.46,3.7-2.27,0-2-2.53-2.44-3.94-1.63a4.43,4.43,0,0,0-1.6,1.7,3.63,3.63,0,0,0-.33.47s-.11,0-.11,0a.35.35,0,0,1,.34.24c.36.34.26.74-.32,1.19,1.82-.63,1-3.52-.79-2.89a2.23,2.23,0,0,0-1.66,2.54,2.38,2.38,0,0,0,2,1.87,3.12,3.12,0,0,0,2.81-1,12.36,12.36,0,0,0,.79-1.15c0-.07.2-.21.22-.28l.13-.1q.38-.09-.36-.33l-.21-.76c0-.14.23-.45.23-.46s-.14,0-.13,0c.09-.19-.05.53.11,0a1.51,1.51,0,0,0-2.2-1.69,3.21,3.21,0,0,0-1.54,4,4.41,4.41,0,0,0,4,2.65c1.93.11,1.92-2.89,0-3Z"/><path class="cls-8" d="M145.64,121.44c-7.63,9.18-16.12,18.92-16.23,23.2H114.87c-7.67-1.8-21.92-.91-36.26,0,5.33,11.72,4.32,19.56,4.94,18.38,7.12-.23,13.65-.79,18.34-2.42,1.4-4.16,1.21-8.72,0-13.54a32.69,32.69,0,0,0,12.7,0c-1.6,3.66-1.13,7.38,0,11.12,4.15,1.32,11.11.76,18.35,0a22,22,0,0,0-.71-11.6C136.58,142.29,141.12,131.51,145.64,121.44Z"/><path class="cls-9" d="M116.36,57.38c-6.37-5.09-25.61-8.5-26.11,3.86"/><path class="cls-9" d="M155.53,60.5c-4.85-5.81-22.81-11.64-26.7.44"/></g><g id="Hale"><path class="cls-2" d="M932.62,341.76c-4.74-2.38-4.6-8.83-4.23-15.47,6.49,1.87,13.3.83,20.46-3.39C949.78,328.71,944.5,335,932.62,341.76Z"/></g><g id="Ansigt"><path class="cls-3" d="M843.72,50.22c-4.34-9.25-15-7.69-27.52-3.39-4.93-4.42-11.29-7.89-26.1-5.8-19.5,3.37-13.27,16.41-9.88,25.14,1.53,8.29-13.73,14.82-29.63,21.27-10,10.52-2.31,46.16,10.58,51.74,7.35-2.24,7.61,7.39,7.06,18.37,18.07,7.46,56.63,3.06,94.54-1C828.25,112.24,860,59,843.72,50.22Z"/><path class="cls-1" d="M857.83,14c-7.76.48-11-1.54-15.39,34.07q15,0,15.39-7.48C854.21,30.4,854.12,21.51,857.83,14Z"/><path class="cls-1" d="M797.15,38.13C783,40.55,785.66,21.87,783,11.05c-6.8-3.15-7.45,7.51-5.64,23.69,2.12,5.32,6.8,3.84,6.65,7.93C793.25,41.74,811.27,35.71,797.15,38.13Z"/></g><g id="Layer_13" data-name="Layer 13"><path class="cls-4" d="M795.46,196.71c-11.36-8.25-17.28-9.79-31.05-6.77-.83-1.45-12.46,46.85-6.23,49.78,6.73.11,6.61,3.52-.12,3.41-8.26-.14-2.89,4.38-27.52,7.25.59-4.77-7.17-6-14.81-7.25-13.05,4.91-2.05,13.87,10.58,24.65,27.42-4.53,49.94-4.89,83.26-30.46C806.65,210.09,806.11,203.77,795.46,196.71Z"/></g><g id="Krop"><path class="cls-5" d="M928.39,344.17c.6-28.15,2-73.49-37.4-87,13.72-42.15,20.86-83.27-31.75-115.07l-93.13,16.44C735.82,173,751.49,205.14,824,346.11,854,351.63,884.83,356.24,928.39,344.17Z"/></g><g id="Arm_venstre" data-name="Arm venstre"><path class="cls-4" d="M858.79,183.66c-11.71,7.74-15.23,12.74-17.22,26.7-1.65.27,39.52,28.09,44.44,23.27,2.46-6.26,5.61-4.95,3.15,1.31-3,7.69,3.09,4.25-2.84,28.31-4.27-2.22-8.12,4.63-12,11.34,0,14,12.28,6.78,26.81-1.27,5.36-27.28,12.9-48.49.63-88.66C875.24,177.86,869.13,176.15,858.79,183.66Z"/><path class="cls-1" d="M1286.61,334.44,1233.9,368.8c2.93,16.88,18.75,23.17,37.33,27.18,18.88,8.66,34.57,18.45,42,31.18-10.78,12.19-13.18,25.19-5.35,39.17,8.87,2.67,20.77-.41,33.95-5.93,3.3-14-1-26.35-8.56-37.94l-42.37-63.23C1294.08,348.33,1292.94,339.9,1286.61,334.44Z"/><path class="cls-1" d="M1214.63,371.11l-28.74-30.75c-13.12,15.57,7.44,59.43-6.51,83.36-15.91-7-24.9,0-29.42,16,1.16,6,14,13.64,25.7,21.1,19.36-8.13,28.89-33.56,39.17-60.39C1208.3,390.24,1208.51,380.48,1214.63,371.11Z"/><path class="cls-2" d="M1290.62,346.76c-4.74-2.38-4.6-8.83-4.23-15.47,6.49,1.87,13.3.83,20.46-3.39C1307.78,333.71,1302.5,340,1290.62,346.76Z"/><path class="cls-3" d="M1201.72,55.22c-4.34-9.25-15-7.69-27.52-3.39-4.93-4.42-11.29-7.89-26.1-5.8-19.5,3.37-13.27,16.41-9.88,25.14,1.53,8.29-13.73,14.82-29.63,21.27-10,10.52-2.31,46.16,10.58,51.74,7.35-2.24,7.61,7.39,7.06,18.37,18.07,7.46,56.63,3.06,94.54-1C1186.25,117.24,1218,64,1201.72,55.22Z"/><path class="cls-1" d="M1215.83,19c-7.76.48-11-1.54-15.39,34.07q15,0,15.39-7.48C1212.21,35.4,1212.12,26.51,1215.83,19Z"/><path class="cls-1" d="M1155.15,43.13C1141,45.55,1143.66,26.87,1141,16.05c-6.8-3.15-7.45,7.51-5.64,23.69,2.12,5.32,6.8,3.84,6.65,7.93C1151.25,46.74,1169.27,40.71,1155.15,43.13Z"/><path class="cls-4" d="M1153.46,201.71c-11.36-8.25-17.28-9.79-31-6.77-.83-1.45-12.46,46.85-6.23,49.78,6.73.11,6.61,3.52-.12,3.41-8.26-.14-2.89,4.38-27.52,7.25.59-4.77-7.17-6-14.81-7.25-13,4.91-2,13.87,10.58,24.65,27.42-4.53,49.94-4.89,83.26-30.46C1164.65,215.09,1164.11,208.77,1153.46,201.71Z"/><path class="cls-5" d="M1288.39,349.17c.6-28.15,2-73.49-37.4-87,13.72-42.15,20.86-83.27-31.75-115.07l-93.13,16.44c-30.29,14.49-14.62,46.62,57.86,187.59C1214,356.63,1244.83,361.24,1288.39,349.17Z"/><path class="cls-4" d="M1220.44,227.54c1.44,14,4.25,19.39,15.7,27.62-.54,1.59,43.19-22,41.2-28.6-4.41-5.08-1.79-7.27,2.62-2.19,5.41,6.24,5.19-.77,23.77,15.64-3.94,2.75.34,9.34,4.5,15.87,12.38,6.43,11.7-7.74,11.29-24.34-21.69-17.39-37-33.9-78.28-41.63C1222.92,210.28,1218.58,214.89,1220.44,227.54Z"/><path class="cls-6" d="M1179.14,121.94h-4.23c-2.69-7.87-5.27-16-12.7-13.06-6.14.5-6.46,6.57-6.35,13.06h-6.35c-.74-7.25-1.58-14.51,2.82-21.28,8-1.87,15.46-3,20.46,0,9.85,3.69,11.22,11.48,8.47,21.28"/><path class="cls-6" d="M1136.1,121.94h-7.76c1.55-6.55.56-11.5-4.23-14-6.27.57-8.06,6.47-8.47,14h-3.52c-1.16-7.33-.46-14.22,3.52-20.31a32.87,32.87,0,0,1,19,0C1139,106.49,1141.07,112.49,1136.1,121.94Z"/><path class="cls-2" d="M1134.34,79.15c5.66-4.51,4.69-12.23,0-21.76-1.39-4.55,4.93-8.41,13.41-12.08,13.78-.73,23.37,1.56,27.51,7.73,4.17-4.61,10.53-5.16,22.58-3.38,4.74,2.79,10.17,9.42,15.47,17.75-2.86,16.84-2.38,60.74,2.88,87.16-7.47,6.9-16.93,12.26-37.4,9.19l3.53-16.44,13.4-33.84-24,29.49H1116c-8.34-9.32-12.85-23.37-12-44C1101.42,95.22,1114.92,87.85,1134.34,79.15Z"/><path class="cls-2" d="M1228.6,118.28c-.17.69-.34,1.37-.5,2.06-.21-1.91-.43-3.76-.64-5.56A31,31,0,0,0,1228.6,118.28Z"/><path class="cls-7" d="M1197.84,70.45c0,26.72-18.93,48.34-42.33,48.34"/><path class="cls-3" d="M1196.43,64.64h-17.64c-6.46,2.89,4.13,14,10.58,11.12C1198.06,78.35,1205.12,67.23,1196.43,64.64Z"/><path class="cls-3" d="M1158.33,58.84h-17.64c-6.46,2.89,4.13,14,10.58,11.12C1160,72.55,1167,61.43,1158.33,58.84Z"/><path d="M1157.53,99.79c.67.17,2.24.74,1.73,1.68s-2.47,1.29-3.28,1l-.09,0c.18.07.18-.05,0-.34a6,6,0,0,1-.05-.85,1.13,1.13,0,0,1,1.11-.85c.18,0,1,.06.9.42,0,.11-.54.09-.6.12l-.2,0a1.09,1.09,0,0,1,.08,1.18c1.93,0,1.93-3,0-3a2.64,2.64,0,0,0-2.79,2.45c0,1.62,1.64,2.43,3.07,2.39a3.41,3.41,0,0,0,3.35-2.36,3.46,3.46,0,0,0-2-3.84,4.55,4.55,0,0,0-4.28.5,4.09,4.09,0,0,0-1.52,4.3,3.16,3.16,0,0,0,3.18,3,6.9,6.9,0,0,0,4.57-1.27,3.68,3.68,0,0,0,1.48-4.19,5.26,5.26,0,0,0-3.85-3.1c-1.88-.47-2.68,2.42-.8,2.89Z"/><path d="M1121.16,97.22c.68.66,2.54,2.12,1.52,3.14a2,2,0,0,1-3-.6,1.48,1.48,0,0,1-.18-1.19c.16-.44,1-1.21,1.53-.88.34.21.25.71.24,1.07s-.29.3,0,.69.69-.12,1.11-.37a1.5,1.5,0,0,0-1.51-2.59c-1.32.76-2.84,1.9-2.43,3.63a2.87,2.87,0,0,0,3.66,1.87c2.85-.89,3-5.56.47-6.91-3-1.61-6.47,1.37-6,4.5a5,5,0,0,0,6.64,3.88,4.15,4.15,0,0,0,2.8-3.52c.12-2-1.41-3.56-2.72-4.85s-3.5.77-2.12,2.13Z"/><path d="M1192.38,75.84a5.65,5.65,0,0,0-4.24-8.08c-2.76-.54-8,.75-7.46,4.46.23,1.7,1.76,2.77,3.22,3.42s4.34,1.89,5.85.41c1-1,1.12-3.06.82-4.38a4.19,4.19,0,0,0-3.45-3.28,1.52,1.52,0,0,0-1.9,1.44c0,.73-.4,1.07-1,1.44-1,.61-1,2.53.35,2.74a4.28,4.28,0,0,1,2.91,1.33l1.69-2.2a4.27,4.27,0,0,1-3.07-3.1l-2.9.8c.12.6-1.4,1.59-1.52,2.41a2.34,2.34,0,0,0,1.07,2.22,11,11,0,0,0,6.89,2,1.5,1.5,0,0,0,0-3c-1.36,0-4.42-.15-5.22-1.58l.16,1.16c.07-.53,1.15-1.25,1.39-1.85a3.62,3.62,0,0,0,.13-2.16c-.36-1.9-3.22-1.09-2.9.8.47,2.67,2.78,4.31,5.18,5.19,1.16.43,2.47-1.17,1.69-2.21a7,7,0,0,0-4.7-2.7l.36,2.74a4.54,4.54,0,0,0,2.48-4l-1.9,1.45c.78.15,1.2.37,1.36,1.19a3.39,3.39,0,0,1,0,.9,3.29,3.29,0,0,1-.1.53l0-.2c-.71.22-4-1.21-3.87-2,.15-1.08,3.17-1.14,3.87-1,1.71.32,3.07,1.89,2.25,3.62s1.76,3.26,2.59,1.52Z"/><path d="M1153.69,69.77c.31-3.39-.67-6.6-4.26-7.6-2.9-.81-6.87.07-6.79,3.73a5.2,5.2,0,0,0,6.45,5.06,3.17,3.17,0,0,0,2.73-2.6c.17-2-2-3.5-3.25-4.7a1.53,1.53,0,0,0-1.82-.23c-2.66,1.85-1.73,5,1.09,6.07,1.81.67,2.6-2.22.8-2.89-.29-.1-.76-.32-.38-.59l-1.81-.23c.4.39,2,1.6,2.13,2.11l.22,0a2.17,2.17,0,0,1-.5.13,2.8,2.8,0,0,1-1,0c-1.15-.24-2.52-2.29-1.13-3a4.09,4.09,0,0,1,3.51.47c1.36,1,1.14,2.81,1,4.26-.17,1.92,2.83,1.91,3,0Z"/><path d="M1150,66.87a1.49,1.49,0,0,1-1.21-.65c0,.06-.06-.24-.06-.09,0-.27.08-.12,0,0a2.49,2.49,0,0,1,.31-.23l-2.2-1.69a3,3,0,0,0,2,3.69c1.54.45,3.67-.46,3.7-2.27,0-2-2.53-2.44-3.94-1.63a4.43,4.43,0,0,0-1.6,1.7,3.63,3.63,0,0,0-.33.47s-.11,0-.11,0a.35.35,0,0,1,.34.24c.36.34.26.74-.32,1.19,1.82-.63,1-3.52-.79-2.89a2.23,2.23,0,0,0-1.66,2.54,2.38,2.38,0,0,0,2,1.87,3.12,3.12,0,0,0,2.81-1,12.36,12.36,0,0,0,.79-1.15c0-.07.2-.21.22-.28l.13-.1q.38-.09-.36-.33l-.21-.76c0-.14.23-.45.23-.46s-.14,0-.13,0c.09-.19,0,.53.11,0a1.51,1.51,0,0,0-2.2-1.69,3.21,3.21,0,0,0-1.54,4,4.41,4.41,0,0,0,4,2.65c1.93.11,1.92-2.89,0-3Z"/><path class="cls-8" d="M1191.14,121.94c-7.63,9.18-16.12,18.92-16.23,23.2h-14.54c-7.67-1.8-21.92-.91-36.26,0,5.33,11.72,4.32,19.56,4.94,18.38,7.12-.23,13.65-.79,18.34-2.42,1.4-4.16,1.21-8.72,0-13.54a32.69,32.69,0,0,0,12.7,0c-1.6,3.66-1.13,7.38,0,11.12,4.15,1.32,11.11.76,18.35,0a22,22,0,0,0-.71-11.6C1182.08,142.79,1186.62,132,1191.14,121.94Z"/><path class="cls-9" d="M1161.86,57.88c-6.37-5.09-25.61-8.5-26.11,3.86"/><path class="cls-9" d="M1201,61c-4.85-5.81-22.81-11.64-26.7.44"/></g><g id="Næsebor"><path class="cls-6" d="M821.14,116.94h-4.23c-2.69-7.87-5.27-16-12.7-13.06-6.14.5-6.46,6.57-6.35,13.06h-6.35c-.74-7.25-1.58-14.51,2.82-21.28,8-1.87,15.46-3,20.46,0,9.85,3.69,11.22,11.48,8.47,21.28"/><path class="cls-6" d="M778.1,116.94h-7.76c1.55-6.55.56-11.5-4.23-14-6.27.57-8.06,6.47-8.47,14h-3.52c-1.16-7.33-.46-14.22,3.52-20.31a32.87,32.87,0,0,1,19.05,0C781,101.49,783.07,107.49,778.1,116.94Z"/></g><g id="Layer_12" data-name="Layer 12"><path class="cls-2" d="M776.34,74.15c5.66-4.51,4.69-12.23,0-21.76C775,47.84,781.27,44,789.75,40.31c13.78-.73,23.37,1.56,27.51,7.73,4.17-4.61,10.53-5.16,22.58-3.38,4.74,2.79,10.17,9.42,15.47,17.75-2.86,16.84-2.38,60.74,2.88,87.16-7.47,6.9-16.93,12.26-37.4,9.19l3.53-16.44,13.4-33.84-24,29.49H758c-8.34-9.32-12.85-23.37-12-44C743.42,90.22,756.92,82.85,776.34,74.15Z"/><path class="cls-2" d="M870.6,113.28c-.17.69-.34,1.37-.5,2.06-.21-1.91-.43-3.76-.64-5.56A31,31,0,0,0,870.6,113.28Z"/><path class="cls-7" d="M839.84,65.45c0,26.72-18.93,48.34-42.33,48.34"/><path class="cls-3" d="M838.43,59.64H820.79c-6.46,2.89,4.13,14,10.58,11.12C840.06,73.35,847.12,62.23,838.43,59.64Z"/><path class="cls-3" d="M800.33,53.84H782.69c-6.46,2.89,4.13,14,10.58,11.12C802,67.55,809,56.43,800.33,53.84Z"/><path d="M799.53,94.79c.67.17,2.24.74,1.73,1.68s-2.47,1.29-3.28,1l-.09,0c.18.07.18-.05,0-.34a6,6,0,0,1,0-.85,1.13,1.13,0,0,1,1.11-.85c.18,0,1,.06.9.42,0,.11-.54.09-.6.12l-.2,0a1.09,1.09,0,0,1,.08,1.18c1.93,0,1.93-3,0-3a2.64,2.64,0,0,0-2.79,2.45c0,1.62,1.64,2.43,3.07,2.39a3.41,3.41,0,0,0,3.35-2.36,3.46,3.46,0,0,0-2-3.84,4.55,4.55,0,0,0-4.28.5,4.09,4.09,0,0,0-1.52,4.3,3.16,3.16,0,0,0,3.18,3,6.9,6.9,0,0,0,4.57-1.27A3.68,3.68,0,0,0,804.18,95a5.26,5.26,0,0,0-3.85-3.1c-1.88-.47-2.68,2.42-.8,2.89Z"/><path d="M763.16,92.22c.68.66,2.54,2.12,1.52,3.14a2,2,0,0,1-2.95-.6,1.48,1.48,0,0,1-.18-1.19c.16-.44,1-1.21,1.53-.88.34.21.25.71.24,1.07s-.29.3-.05.69.69-.12,1.11-.37a1.5,1.5,0,0,0-1.51-2.59c-1.32.76-2.84,1.9-2.43,3.63A2.87,2.87,0,0,0,764.1,97c2.85-.89,3-5.56.47-6.91-3-1.61-6.47,1.37-6,4.5a5,5,0,0,0,6.64,3.88,4.15,4.15,0,0,0,2.8-3.52c.12-2-1.41-3.56-2.72-4.85s-3.5.77-2.12,2.13Z"/><path d="M834.38,70.84a5.65,5.65,0,0,0-4.24-8.08c-2.76-.54-8,.75-7.46,4.46.23,1.7,1.76,2.77,3.22,3.42s4.34,1.89,5.85.41c1-1,1.12-3.06.82-4.38a4.19,4.19,0,0,0-3.45-3.28,1.52,1.52,0,0,0-1.9,1.44c0,.73-.4,1.07-1,1.44-1,.61-1,2.53.35,2.74a4.28,4.28,0,0,1,2.91,1.33l1.69-2.2a4.27,4.27,0,0,1-3.07-3.1l-2.9.8c.12.6-1.4,1.59-1.52,2.41a2.34,2.34,0,0,0,1.07,2.22,11,11,0,0,0,6.89,2,1.5,1.5,0,0,0,0-3c-1.36,0-4.42-.15-5.22-1.58l.16,1.16c.07-.53,1.15-1.25,1.39-1.85a3.62,3.62,0,0,0,.13-2.16c-.36-1.9-3.22-1.09-2.9.8.47,2.67,2.78,4.31,5.18,5.19,1.16.43,2.47-1.17,1.69-2.21a7,7,0,0,0-4.7-2.7l.36,2.74a4.54,4.54,0,0,0,2.48-4l-1.9,1.45c.78.15,1.2.37,1.36,1.19a3.39,3.39,0,0,1,0,.9,3.29,3.29,0,0,1-.1.53l0-.2c-.71.22-4-1.21-3.87-2,.15-1.08,3.17-1.14,3.87-1,1.71.32,3.07,1.89,2.25,3.62s1.76,3.26,2.59,1.52Z"/><path d="M795.69,64.77c.31-3.39-.67-6.6-4.26-7.6-2.9-.81-6.87.07-6.79,3.73A5.2,5.2,0,0,0,791.09,66a3.17,3.17,0,0,0,2.73-2.6c.17-2-2.05-3.5-3.25-4.7a1.53,1.53,0,0,0-1.82-.23c-2.66,1.85-1.73,5,1.09,6.07,1.81.67,2.6-2.22.8-2.89-.29-.1-.76-.32-.38-.59l-1.81-.23c.4.39,2,1.6,2.13,2.11l.22,0a2.17,2.17,0,0,1-.5.13,2.8,2.8,0,0,1-1,0c-1.15-.24-2.52-2.29-1.13-3a4.09,4.09,0,0,1,3.51.47c1.36,1,1.14,2.81,1,4.26-.17,1.92,2.83,1.91,3,0Z"/><path d="M792,61.87a1.49,1.49,0,0,1-1.21-.65c0,.06-.06-.24-.06-.09,0-.27.08-.12,0-.05a2.49,2.49,0,0,1,.31-.23l-2.2-1.69a3,3,0,0,0,2,3.69c1.54.45,3.67-.46,3.7-2.27,0-2-2.53-2.44-3.94-1.63a4.43,4.43,0,0,0-1.6,1.7,3.63,3.63,0,0,0-.33.47s-.11,0-.11,0a.35.35,0,0,1,.34.24c.36.34.26.74-.32,1.19,1.82-.63,1-3.52-.79-2.89a2.23,2.23,0,0,0-1.66,2.54,2.38,2.38,0,0,0,2,1.87,3.12,3.12,0,0,0,2.81-1,12.36,12.36,0,0,0,.79-1.15c0-.07.2-.21.22-.28l.13-.1q.38-.09-.36-.33l-.21-.76c0-.14.23-.45.23-.46s-.14,0-.13,0c.09-.19,0,.53.11,0a1.51,1.51,0,0,0-2.2-1.69,3.21,3.21,0,0,0-1.54,4,4.41,4.41,0,0,0,4,2.65c1.93.11,1.92-2.89,0-3Z"/></g><g id="Tænder"><path class="cls-8" d="M833.14,116.94c-7.63,9.18-16.12,18.92-16.23,23.2H802.37c-7.67-1.8-21.92-.91-36.26,0,5.33,11.72,4.32,19.56,4.94,18.38,7.12-.23,13.65-.79,18.34-2.42,1.4-4.16,1.21-8.72,0-13.54a32.69,32.69,0,0,0,12.7,0c-1.6,3.66-1.13,7.38,0,11.12,4.15,1.32,11.11.76,18.35,0a22,22,0,0,0-.71-11.6C824.08,137.79,828.62,127,833.14,116.94Z"/></g><g id="Øjenbryn"><path class="cls-9" d="M803.86,52.88c-6.37-5.09-25.61-8.5-26.11,3.86"/><path class="cls-9" d="M843,56c-4.85-5.81-22.81-11.64-26.7.44"/></g></svg>