<svg id="Baggrund" xmlns="http://www.w3.org/2000/svg" viewBox="0 0 2800 500"><defs><style>.cls-1{fill:#94108c;}.cls-2,.cls-9{fill:#00b31a;}.cls-3{fill:#005bbf;}.cls-4{fill:#ffba9f;}.cls-5{fill:#f2ff7f;}.cls-6{fill:#009f1a;}.cls-7{fill:#4a2900;}.cls-8{fill:#ba7c8c;}.cls-9{stroke:#000;stroke-miterlimit:10;}.cls-10{fill:#5f0053;}.cls-11{fill:#aad5ff;}</style></defs><title>walkcycleAC</title><rect class="cls-1" x="351" width="348" height="500"/><path class="cls-2" d="M518,267.25C517.72,344.9,532.7,396,558.79,427.79l18.55-17.49-33.55-60.15,23.59-63.79Z"/><path class="cls-3" d="M543,170,516,275h43c2.77-19.61,7.28-51.55,12-85l14,32-35,62,7,11,46-78c-1-21.61-13.13-43.28-34-65Z"/><polygon class="cls-4" points="548 166 548 152 559 138 569 152 548 166"/><path class="cls-4" d="M559,109c6.42,34.54-12,55.61-50,66-8.6-6.9-14.6-14.35-15-23-3.73,1.67-7.81,3.87-8,0-2.71.64-5.93-19.87-9-34-1.38-10.08-2.15-19.54,0-26l39,23V92l21,21,2-21Z"/><path class="cls-5" d="M478,134l-9-22,4,22-9-22v15c-8.24-9.78-14.28-22.77-14-45,12.83-27.85,37.22-39.09,66-44,19.75-3.8,36.83,2.37,53,12l22,13c-1,4.82-4.83,7.92-12,9l12,20c2.77,5.26-3.41,9.65-10,14l10,8c-.1,6.86-9.64,10.57-20,14,8.72,10.1,10.38,13.46,7,12l-9,7c-2.85,2.61-6.86-2.73-11-9l2-29L537,92c2.52,5.13,1.3,13,0,21L516,92v23L476,92Z"/><path class="cls-6" d="M518,280l19,43-26,28-12,72H476l14-72C495.45,325.67,504.35,301.81,518,280Z"/><path class="cls-7" d="M499,423v28l-51-3c-.2-10.06,8.49-18.52,28-25Z"/><path class="cls-7" d="M578.42,410.28l12.7,24.57c-16.12,20.87-31.68,35.94-44.68,25,4.5-11.12,16.41-21,13.14-32.44Z"/><path d="M487,121c1.37,5.47,3.24,10.49,9,12q4.5-6,3-12C494.81,118.57,490.76,117.92,487,121Z"/><rect class="cls-8" x="699" width="348" height="500"/><path class="cls-3" d="M856,179,829,284h43c2.77-19.61,7.28-51.55,12-85l14,32-35,62,7,11,46-78c-1-21.61-13.13-43.28-34-65Z"/><polygon class="cls-4" points="861 175 861 161 872 147 882 161 861 175"/><path class="cls-4" d="M872,118c6.42,34.54-12,55.61-50,66-8.6-6.9-14.6-14.35-15-23-3.73,1.67-7.81,3.87-8,0-2.71.64-5.93-19.87-9-34-1.38-10.08-2.15-19.54,0-26l39,23V101l21,21,2-21Z"/><path class="cls-5" d="M791,143l-9-22,4,22-9-22v15c-8.24-9.78-14.28-22.77-14-45,12.83-27.85,37.22-39.09,66-44,19.75-3.8,36.83,2.37,53,12l22,13c-1,4.82-4.83,7.92-12,9l12,20c2.77,5.26-3.41,9.65-10,14l10,8c-.1,6.86-9.64,10.57-20,14,8.72,10.1,10.38,13.46,7,12l-9,7c-2.85,2.61-6.86-2.73-11-9l2-29-23-17c2.52,5.13,1.3,13,0,21l-21-21v23l-40-23Z"/><path class="cls-6" d="M836.38,284.2l27.79,37.91-19.38,32.94,3.74,72.89-22.46,4.94-1.79-73.32C824.16,333.64,827.73,308.43,836.38,284.2Z"/><path class="cls-7" d="M850.29,420.92l4.7,27.61-50.79,5.59c-1.88-9.89,5.27-19.68,23.42-29.34Z"/><path class="cls-7" d="M902.41,393.79l11,25.38c-17.52,19.71-34.07,33.68-46.3,21.92,5.26-10.79,17.82-19.82,15.35-31.46Z"/><path d="M800,130c1.37,5.47,3.24,10.49,9,12q4.5-6,3-12C807.81,127.57,803.76,126.92,800,130Z"/><polygon class="cls-2" points="829 284 871 284 861 352 896 384 905 396 882 407 834 345 829 284"/><path class="cls-9" d="M806,142c7.14-1.69,12.58-3.77,13-7"/><rect class="cls-10" width="351" height="500"/><path class="cls-2" d="M146,281c27.79,72.51,60.21,114.79,96,135l11-23-53-44c-.11-7.26-.57-38.47-1-68Z"/><path class="cls-3" d="M173,176,146,281h43c2.77-19.61,7.28-51.55,12-85l14,32-35,62,7,11,46-78c-1.05-21.61-13.13-43.28-34-65Z"/><polygon class="cls-4" points="178 172 178 158 189 144 199 158 178 172"/><path class="cls-4" d="M189,115c6.42,34.54-12,55.61-50,66-8.6-6.9-14.6-14.35-15-23-3.73,1.67-7.81,3.87-8,0-2.71.64-5.93-19.87-9-34-1.38-10.08-2.15-19.54,0-26l39,23V98l21,21,2-21Z"/><path class="cls-5" d="M108,140l-9-22,4,22-9-22v15c-8.24-9.78-14.28-22.77-14-45,12.83-27.85,37.22-39.09,66-44,19.75-3.8,36.83,2.37,53,12l22,13c-1,4.82-4.83,7.92-12,9l12,20c2.77,5.26-3.41,9.65-10,14l10,8c-.1,6.86-9.64,10.57-20,14,8.72,10.1,10.38,13.46,7,12l-9,7c-2.85,2.61-6.86-2.73-11-9l2-29L167,98c2.52,5.13,1.3,13,0,21L146,98v23L106,98Z"/><path class="cls-6" d="M148,286l19,43-26,28-12,72H106l14-72C125.45,331.67,134.35,307.81,148,286Z"/><path class="cls-7" d="M129,429v28l-51-3c-.2-10.06,8.49-18.52,28-25Z"/><path class="cls-7" d="M253,393l21,18c-7.1,25.4-15.85,45.21-32,40,0-12,7.33-25.63,0-35Z"/><path d="M117,127c1.37,5.47,3.24,10.49,9,12q4.5-6,3-12C124.81,124.57,120.76,123.92,117,127Z"/><rect class="cls-11" x="1047" width="353" height="500"/><path class="cls-3" d="M1219,177l-27,105h43c2.77-19.61,7.28-51.55,12-85l14,32-35,62,7,11,46-78c-1-21.61-13.13-43.28-34-65Z"/><polygon class="cls-4" points="1224 173 1224 159 1235 145 1245 159 1224 173"/><path class="cls-4" d="M1235,116c6.42,34.54-12,55.61-50,66-8.6-6.9-14.6-14.35-15-23-3.73,1.67-7.81,3.87-8,0-2.71.64-5.93-19.87-9-34-1.38-10.08-2.15-19.54,0-26l39,23V99l21,21,2-21Z"/><path class="cls-5" d="M1154,141l-9-22,4,22-9-22v15c-8.24-9.78-14.28-22.77-14-45,12.83-27.85,37.22-39.09,66-44,19.75-3.8,36.83,2.37,53,12l22,13c-1,4.82-4.83,7.92-12,9l12,20c2.77,5.26-3.41,9.65-10,14l10,8c-.1,6.86-9.64,10.57-20,14,8.72,10.1,10.38,13.46,7,12l-9,7c-2.85,2.61-6.86-2.73-11-9l2-29-23-17c2.52,5.13,1.3,13,0,21l-21-21v23l-40-23Z"/><path class="cls-7" d="M1152,416.16l-.18,22.95-44.09-2.81c-.11-8.25,7.46-15.12,24.38-20.3Z"/><path class="cls-7" d="M1271.09,401.69l17.75,25.12c-16.21,21.29-32.47,36.66-48.92,25.51,3.89-11.35,16.54-21.42,11.35-33.11Z"/><path d="M1163,128c1.37,5.47,3.24,10.49,9,12q4.5-6,3-12C1170.81,125.57,1166.76,124.92,1163,128Z"/><polygon class="cls-6" points="1192 283 1234 283 1245 350 1268 402 1251 418 1224 359 1192 283"/><polygon class="cls-2" points="1192 283 1203.63 310.61 1169 367 1152 416 1135 416 1152 359 1192 283"/></svg>